<?xml version="1.0" standalone="no"?>
<svg xmlns:xlink="http://www.w3.org/1999/xlink" id="wave" style="transform:rotate(0deg); transition: 0.3s" viewBox="0 0 1440 440" version="1.1" xmlns="http://www.w3.org/2000/svg"><defs><linearGradient id="sw-gradient-0" x1="0" x2="0" y1="1" y2="0"><stop stop-color="rgba(255, 255, 255, 1)" offset="0%"/><stop stop-color="rgba(255, 255, 255, 1)" offset="100%"/></linearGradient></defs><path style="transform:translate(0, 0px); opacity:1" fill="url(#sw-gradient-0)" d="M0,44L80,95.3C160,147,320,249,480,278.7C640,308,800,264,960,220C1120,176,1280,132,1440,95.3C1600,59,1760,29,1920,51.3C2080,73,2240,147,2400,161.3C2560,176,2720,132,2880,146.7C3040,161,3200,235,3360,271.3C3520,308,3680,308,3840,264C4000,220,4160,132,4320,110C4480,88,4640,132,4800,190.7C4960,249,5120,323,5280,293.3C5440,264,5600,132,5760,73.3C5920,15,6080,29,6240,29.3C6400,29,6560,15,6720,58.7C6880,103,7040,205,7200,242C7360,279,7520,249,7680,220C7840,191,8000,161,8160,132C8320,103,8480,73,8640,102.7C8800,132,8960,220,9120,249.3C9280,279,9440,249,9600,212.7C9760,176,9920,132,10080,132C10240,132,10400,176,10560,205.3C10720,235,10880,249,11040,264C11200,279,11360,293,11440,300.7L11520,308L11520,440L11440,440C11360,440,11200,440,11040,440C10880,440,10720,440,10560,440C10400,440,10240,440,10080,440C9920,440,9760,440,9600,440C9440,440,9280,440,9120,440C8960,440,8800,440,8640,440C8480,440,8320,440,8160,440C8000,440,7840,440,7680,440C7520,440,7360,440,7200,440C7040,440,6880,440,6720,440C6560,440,6400,440,6240,440C6080,440,5920,440,5760,440C5600,440,5440,440,5280,440C5120,440,4960,440,4800,440C4640,440,4480,440,4320,440C4160,440,4000,440,3840,440C3680,440,3520,440,3360,440C3200,440,3040,440,2880,440C2720,440,2560,440,2400,440C2240,440,2080,440,1920,440C1760,440,1600,440,1440,440C1280,440,1120,440,960,440C800,440,640,440,480,440C320,440,160,440,80,440L0,440Z"/></svg>